nColumns=19																		
nRows=22																		
DataType=double																		
version=3																		
OpenSimVersion=4.4-2022-07-23-0e9fedc																		
endheader																		
time	ground_force_1_vx	ground_force_1_vy	ground_force_1_vz	ground_force_1_px	ground_force_1_py	ground_force_1_pz	ground_moment_1_mx	ground_moment_1_my	ground_moment_1_mz	ground_force_2_vx	ground_force_2_vy	ground_force_2_vz	ground_force_2_px	ground_force_2_py	ground_force_2_pz	ground_moment_2_mx	ground_moment_2_my	ground_moment_2_mz
    1.00000000000000	  -16.35087905000000	  631.33587079999995	   31.41930213000000	    0.78106309812663	    0.00000000000000	    0.39439425488332	    0.00000000000000	    2.08592516374442	    0.00000000000000	    0.00000000000000	    0.00000000000000	    0.00000000000000	                 NaN	    0.00000000000000	                 NaN	    0.00000000000000	                 NaN	    0.00000000000000
    1.00500000000000	  -14.15825977000000	  636.10675490000006	   30.98255645000000	    0.77576973992933	    0.00000000000000	    0.39494136650590	    0.00000000000000	    1.98271537340945	    0.00000000000000	    0.00000000000000	    0.00000000000000	    0.00000000000000	                 NaN	    0.00000000000000	                 NaN	    0.00000000000000	                 NaN	    0.00000000000000
    1.01000000000000	  -11.93606481000000	  640.73772090000000	   30.58014020000000	    0.77043966870417	    0.00000000000000	    0.39545749587449	    0.00000000000000	    1.92361231799721	    0.00000000000000	    0.00000000000000	    0.00000000000000	    0.00000000000000	                 NaN	    0.00000000000000	                 NaN	    0.00000000000000	                 NaN	    0.00000000000000
    1.01500000000000	   -9.73709866700000	  645.33570499999996	   30.18411135000000	    0.76525477749135	    0.00000000000000	    0.39589174564268	    0.00000000000000	    1.88503049905490	    0.00000000000000	    0.00000000000000	    0.00000000000000	    0.00000000000000	                 NaN	    0.00000000000000	                 NaN	    0.00000000000000	                 NaN	    0.00000000000000
    1.02000000000000	   -7.56787854000000	  649.82011799999998	   29.90524740000000	    0.76012568322669	    0.00000000000000	    0.39625012442105	    0.00000000000000	    1.85563836324265	    0.00000000000000	    0.00000000000000	    0.00000000000000	    0.00000000000000	                 NaN	    0.00000000000000	                 NaN	    0.00000000000000	                 NaN	    0.00000000000000
    1.02500000000000	   -5.33215323800000	  653.92602699999998	   29.77952279000000	    0.75489395739222	    0.00000000000000	    0.39658730822041	    0.00000000000000	    1.79753604434521	    0.00000000000000	    0.00000000000000	    0.00000000000000	    0.00000000000000	                 NaN	    0.00000000000000	                 NaN	    0.00000000000000	                 NaN	    0.00000000000000
    1.03000000000000	   -2.95749483400000	  657.51948730000004	   29.70087403000000	    0.74962436309623	    0.00000000000000	    0.39693308833081	    0.00000000000000	    1.70943922854565	    0.00000000000000	    0.00000000000000	    0.00000000000000	    0.00000000000000	                 NaN	    0.00000000000000	                 NaN	    0.00000000000000	                 NaN	    0.00000000000000
    1.03500000000000	   -0.55021861700000	  660.73491070000000	   29.52783291000000	    0.74446063285722	    0.00000000000000	    0.39725354294817	    0.00000000000000	    1.63366899585891	    0.00000000000000	    0.00000000000000	    0.00000000000000	    0.00000000000000	                 NaN	    0.00000000000000	                 NaN	    0.00000000000000	                 NaN	    0.00000000000000
    1.04000000000000	    1.78129666200000	  663.67074000000002	   29.25468250000000	    0.73933827184546	    0.00000000000000	    0.39753231035016	    0.00000000000000	    1.57832952451304	    0.00000000000000	    0.00000000000000	    0.00000000000000	    0.00000000000000	                 NaN	    0.00000000000000	                 NaN	    0.00000000000000	                 NaN	    0.00000000000000
    1.04500000000000	    4.18453878000000	  666.18268499999999	   28.99084769000000	    0.73413706273227	    0.00000000000000	    0.39780608677333	    0.00000000000000	    1.49940777619430	    0.00000000000000	    0.00000000000000	    0.00000000000000	    0.00000000000000	                 NaN	    0.00000000000000	                 NaN	    0.00000000000000	                 NaN	    0.00000000000000
    1.05000000000000	    6.81505604200000	  668.14607420000004	   28.83928432000000	    0.72882896917496	    0.00000000000000	    0.39810078962927	    0.00000000000000	    1.36953380314033	    0.00000000000000	    0.00000000000000	    0.00000000000000	    0.00000000000000	                 NaN	    0.00000000000000	                 NaN	    0.00000000000000	                 NaN	    0.00000000000000
    1.05500000000000	    9.55286520200000	  669.68920179999998	   28.81222796000000	    0.72346471580352	    0.00000000000000	    0.39839703662201	    0.00000000000000	    1.21856288900037	    0.00000000000000	    0.00000000000000	    0.00000000000000	    0.00000000000000	                 NaN	    0.00000000000000	                 NaN	    0.00000000000000	                 NaN	    0.00000000000000
    1.06000000000000	   12.26457118000000	  671.01522509999995	   28.80768580000000	    0.71810897307752	    0.00000000000000	    0.39866096830261	    0.00000000000000	    1.09881643471069	    0.00000000000000	    0.00000000000000	    0.00000000000000	    0.00000000000000	                 NaN	    0.00000000000000	                 NaN	    0.00000000000000	                 NaN	    0.00000000000000
    1.06500000000000	   15.08802821000000	  672.08220610000001	   28.77013953000000	    0.71272975872548	    0.00000000000000	    0.39892345796441	    0.00000000000000	    1.00490829727150	    0.00000000000000	    0.00000000000000	    0.00000000000000	    0.00000000000000	                 NaN	    0.00000000000000	                 NaN	    0.00000000000000	                 NaN	    0.00000000000000
    1.07000000000000	   18.18928893000000	  672.80743170000005	   28.78976065000000	    0.70719286892499	    0.00000000000000	    0.39921479481886	    0.00000000000000	    0.89507411102448	    0.00000000000000	    0.00000000000000	    0.00000000000000	    0.00000000000000	                 NaN	    0.00000000000000	                 NaN	    0.00000000000000	                 NaN	    0.00000000000000
    1.07500000000000	   21.49151254000000	  673.35294529999999	   28.99906680000000	    0.70152015545928	    0.00000000000000	    0.39949664802406	    0.00000000000000	    0.76805973875693	    0.00000000000000	    0.00000000000000	    0.00000000000000	    0.00000000000000	                 NaN	    0.00000000000000	                 NaN	    0.00000000000000	                 NaN	    0.00000000000000
    1.08000000000000	   24.79579945000000	  673.96916929999998	   29.40016704000000	    0.69585033373042	    0.00000000000000	    0.39972600643244	    0.00000000000000	    0.65072558900988	    0.00000000000000	    0.00000000000000	    0.00000000000000	    0.00000000000000	                 NaN	    0.00000000000000	                 NaN	    0.00000000000000	                 NaN	    0.00000000000000
    1.08500000000000	   28.06440679000000	  674.70290420000003	   29.85751474000000	    0.69020506125084	    0.00000000000000	    0.39992373646985	    0.00000000000000	    0.56227772556104	    0.00000000000000	    0.00000000000000	    0.00000000000000	    0.00000000000000	                 NaN	    0.00000000000000	                 NaN	    0.00000000000000	                 NaN	    0.00000000000000
    1.09000000000000	   31.40964374000000	  675.48692270000004	   30.27205599000000	    0.68441872188354	    0.00000000000000	    0.40013727555813	    0.00000000000000	    0.48153555536585	    0.00000000000000	    0.00000000000000	    0.00000000000000	    0.00000000000000	                 NaN	    0.00000000000000	                 NaN	    0.00000000000000	                 NaN	    0.00000000000000
    1.09500000000000	   34.86678897000000	  676.37291230000005	   30.69491316000000	    0.67842148448147	    0.00000000000000	    0.40037073837098	    0.00000000000000	    0.37441683294097	    0.00000000000000	    0.00000000000000	    0.00000000000000	    0.00000000000000	                 NaN	    0.00000000000000	                 NaN	    0.00000000000000	                 NaN	    0.00000000000000
    1.10000000000000	   38.31004057000000	  677.52578240000003	   31.22111938000000	    0.67240364651629	    0.00000000000000	    0.40058857297862	    0.00000000000000	    0.24467003228291	    0.00000000000000	    0.00000000000000	    0.00000000000000	    0.00000000000000	                 NaN	    0.00000000000000	                 NaN	    0.00000000000000	                 NaN	    0.00000000000000
    1.10500000000000	   41.60708482000000	  678.97029029999999	   31.81113959000000	    0.66658456984744	    0.00000000000000	    0.40078555869690	    0.00000000000000	    0.12883502299027	    0.00000000000000	    0.00000000000000	    0.00000000000000	    0.00000000000000	                 NaN	    0.00000000000000	                 NaN	    0.00000000000000	                 NaN	    0.00000000000000
